<svg width="212" height="293" viewBox="0 0 212 293" fill="none" xmlns="http://www.w3.org/2000/svg">
<path d="M60.4045 114.006C63.4547 110.853 66.5393 107.734 69.7166 104.712C72.6397 101.946 75.8514 99.4767 78.5787 96.5501C79.4855 95.609 81.7904 73.7662 84.9368 66.8105C85.847 64.7942 86.9187 62.8122 88.3442 61.1222C96.3613 51.7586 109.895 54.1322 119.825 48.413C122.745 46.723 125.469 43.9922 125.534 40.6123C125.534 40.1898 125.503 39.7329 125.211 39.4066C124.789 38.9188 124.043 38.9532 123.394 39.0184C110.963 40.3821 98.5013 41.7492 86.0737 43.082C83.8032 43.3396 81.464 43.6006 79.5199 44.8029C77.3765 46.1047 76.0128 48.3134 74.7487 50.4911C67.9338 62.2249 62.1906 74.546 57.5809 87.3205C55.4719 93.1393 55.1456 99.4458 53.1361 105.134C51.7381 109.132 48.4612 112.22 46.8056 116.153C44.7961 120.866 43.855 126.032 43.982 131.171C49.4676 125.448 54.9189 119.695 60.4045 114.006Z" fill="#FBC4AB"/>
<path d="M121.708 42.8553C121.804 42.8862 121.869 42.8862 121.935 42.9515C122 43.0167 122.031 43.082 122.062 43.1782C122.419 43.9923 122.745 44.8372 123.003 45.6822C123.103 45.9742 123.199 46.2662 123.068 46.5581C122.941 46.8501 122.615 46.9806 122.292 47.0803C121.251 47.4031 119.468 48.152 118.397 47.9253C117.552 47.7295 117.586 46.8845 117.521 46.1356C117.421 44.9987 116.902 43.8274 118.105 43.2434C119.207 42.6595 120.537 42.5599 121.708 42.8553Z" fill="#231F20"/>
<path d="M92.6923 68.0127L92.335 65.7697L91.5587 60.4696C91.2977 58.7143 91.4935 56.9934 92.0431 55.4649C93.3106 52.1502 96.2646 49.5809 99.964 49.0278L191.381 35.3121C196.833 34.5015 201.961 38.2696 202.772 43.7312L203.905 51.2708C203.874 51.3052 168.728 77.4072 92.6923 68.0127Z" fill="#777777"/>
<path d="M211.243 100.226L203.906 51.3052L92.7275 68.0127L100.027 116.933C100.841 122.391 105.966 126.197 111.42 125.352L202.773 111.633C208.289 110.822 212.019 105.718 211.243 100.226Z" fill="#4C4C4C"/>
<path d="M113.691 61.902C114.371 61.349 114.306 60.3425 114.179 59.4975C113.952 58.1648 113.657 56.7977 113.268 55.4993C113.107 54.881 112.88 54.2936 112.458 53.8711C111.712 53.0914 110.837 52.7685 109.73 52.8647C107.168 53.0261 97.2067 54.589 92.044 55.4649C91.4944 56.9935 91.2677 58.7144 91.5597 60.4696L92.336 65.7697C99.089 64.5984 105.804 63.4958 112.523 62.3245C112.946 62.2249 113.365 62.163 113.691 61.902Z" fill="#4C4C4C"/>
<path d="M162.563 53.1257C162.725 53.3867 162.921 53.6444 163.213 53.7749C163.57 53.9363 163.992 53.9054 164.415 53.8402C168.763 53.1566 173.047 52.1502 177.265 50.8483C177.523 50.7522 177.814 50.6869 178.01 50.4602C178.337 50.103 178.271 49.5499 178.172 49.0931C177.784 46.9497 177.395 44.7719 176.973 42.6251C176.908 42.3022 176.842 41.9759 176.647 41.7148C176.193 41.0656 175.221 41.1 174.407 41.2271C172.071 41.5843 169.766 41.945 167.431 42.3022C165.744 42.5598 163.243 42.4946 161.818 43.5354C160.616 44.4147 160.777 45.878 160.973 47.2107C161.234 49.1583 161.426 51.4014 162.563 53.1257Z" fill="#4C4C4C"/>
<path d="M78.3493 83.9405C75.1376 87.0938 74.296 93.9499 72.1526 97.9825C70.497 101.101 68.2918 103.897 66.7014 107.051C62.5142 115.339 56.5443 126.228 55.2768 135.461C54.1433 143.815 57.7431 152.004 61.3773 159.612C67.6735 172.744 74.2617 185.745 81.1419 198.551C84.7451 205.249 88.5716 212.627 87.2423 220.101C86.3664 225.075 83.2853 229.365 79.7473 232.975C70.9195 241.913 58.6843 247.375 46.1571 247.993C44.4052 248.089 42.492 247.993 41.1936 246.822C40.3486 246.042 39.9261 244.905 39.5723 243.83C37.69 238.499 34.8321 233.168 33.4684 227.775C31.7166 220.85 30.2911 213.829 28.7007 206.904C25.5852 193.219 22.4354 179.535 19.3199 165.853C18.0559 160.292 16.7884 154.443 18.1864 148.916C19.028 145.57 20.7798 142.578 22.3392 139.49C29.4118 125.352 31.8471 109.163 39.3765 95.2827C42.4576 89.6288 46.3219 84.4283 49.8565 79.0629C53.1025 74.1235 55.5035 68.7272 58.6843 63.8187C64.8843 54.2627 66.8319 42.3332 75.0723 33.9485C78.0264 30.9567 81.0766 28.3564 83.8692 25.0417C90.162 17.6291 97.0113 10.4123 102.885 2.64594C104.668 0.533452 108.432 -1.77482 109.569 2.05856C110.641 5.66868 110.445 9.63259 109.374 13.2084C108.14 17.3371 105.839 21.0744 103.143 24.4234C101.717 26.2096 100.158 27.903 98.9245 29.8506C97.5608 31.9974 96.654 34.4019 95.8434 36.8064C91.0379 50.4911 87.9568 64.8285 82.0487 78.0874C81.0766 80.1037 80.0049 82.2814 78.3493 83.9405Z" fill="#FBC4AB"/>
<path d="M62.2871 164.747C61.734 161.659 61.3768 158.537 61.2154 155.418C61.0848 152.849 61.1192 150.087 62.6099 148.005C65.4335 143.976 71.4377 144.66 76.2398 143.554C83.1543 141.994 88.5403 136.076 95.4857 134.616C99.0237 133.867 102.689 134.355 106.323 134.451C115.573 134.681 124.885 132.243 132.868 127.53C133.291 127.269 133.713 127.008 133.909 126.554C134.136 125.936 133.809 125.287 133.455 124.734C129.495 118.946 121.351 118.101 114.34 118.558C111.063 118.754 107.783 119.111 104.571 118.558C99.8996 117.744 95.7777 115.113 91.7863 112.512C88.6055 110.431 85.2942 108.253 83.381 104.938C81.9521 102.499 81.4334 99.6073 81.1723 96.8112C79.4858 79.8117 85.6206 63.1042 91.6248 47.1455C85.9125 47.5989 79.9735 48.8355 75.5906 52.5384C71.9564 55.6264 69.1982 59.5937 66.6357 63.6229C55.8947 80.3648 47.5546 98.6317 42.0038 117.744C40.1867 124.019 38.6616 130.553 39.5375 137.021C40.0562 140.727 41.3546 144.303 43.0411 147.617C47.1631 155.645 54.2699 160.619 62.2871 164.747Z" fill="#FBC4AB"/>
<path d="M92.858 43.6659C88.3445 49.8763 85.6206 57.8385 83.4772 65.1515C81.2376 72.7564 79.4549 81.3712 80.2655 89.3368C80.2964 89.6288 80.7533 89.725 80.8151 89.4021C81.6944 85.3042 82.1479 81.0792 82.9276 76.9505C83.6386 73.148 84.5489 69.4108 85.6515 65.7354C87.8602 58.3262 91.46 51.3705 93.6034 43.9579C93.6995 43.5045 93.0847 43.3087 92.858 43.6659Z" fill="#DBA995"/>
<path d="M152.018 62.8432C137.965 62.8432 126.575 74.254 126.575 88.327C126.575 102.469 137.965 113.876 152.018 113.876C166.067 113.876 177.46 102.469 177.46 88.327C177.46 74.254 166.067 62.8432 152.018 62.8432ZM152.018 100.16C145.526 100.16 140.205 94.8946 140.205 88.327C140.205 81.8281 145.495 76.5623 152.018 76.5623C158.506 76.5623 163.83 81.8281 163.83 88.327C163.83 94.8946 158.506 100.16 152.018 100.16Z" fill="#231F20"/>
<path d="M86.2041 202.126C84.0951 200.793 81.8555 199.365 80.7529 197.122C79.324 194.195 80.1999 190.719 81.1101 187.596C83.5111 179.212 85.9431 170.858 88.3441 162.47C89.3196 159.155 89.8692 154.734 86.8533 153.014C84.7752 151.811 82.0513 152.783 80.1689 154.312C78.2866 155.84 76.8233 157.857 74.7795 159.155C67.5765 163.706 57.969 157.077 49.7595 159.317C40.4783 161.855 36.4869 174.63 26.979 176.254C18.7352 177.683 9.84555 169.817 2.60815 173.977C-0.995099 176.059 -0.280633 179.665 1.27539 182.818C1.69789 183.698 2.21656 184.543 2.70432 185.323C8.02504 193.676 15.0701 200.924 23.2796 206.482C23.7983 206.839 24.3169 207.196 24.6742 207.718C25.0623 208.302 25.1928 209.051 25.2581 209.766C26.8828 224.426 20.9095 239.086 22.4037 253.746C22.7918 257.449 23.6368 261.09 24.4784 264.731C25.3543 268.503 26.2336 272.24 27.2057 275.977C29.2495 283.713 32.3993 288.233 40.3168 290.411C54.2043 294.213 69.4588 292.719 82.3433 286.282C96.9761 278.969 108.335 265.738 123.751 260.245C126.379 259.304 129.333 258.459 130.858 256.117C132.706 253.29 131.7 249.487 130.37 246.365C122.096 226.799 104.117 213.372 86.2041 202.126Z" fill="#6563D6"/>
<path d="M152.018 66.5838C140.009 66.5838 130.274 76.3013 130.274 88.327C130.274 100.387 140.009 110.104 152.018 110.104C164.023 110.104 173.761 100.387 173.761 88.327C173.761 76.3013 164.023 66.5838 152.018 66.5838ZM152.018 100.16C145.526 100.16 140.205 94.8946 140.205 88.327C140.205 81.8281 145.495 76.5623 152.018 76.5623C158.506 76.5623 163.83 81.8281 163.83 88.327C163.83 94.8946 158.506 100.16 152.018 100.16Z" fill="#777777"/>
</svg>
