<svg width="264" height="293" viewBox="0 0 264 293" fill="none" xmlns="http://www.w3.org/2000/svg">
<path d="M242.51 150.256C242.51 221.533 197.094 292.097 132.718 292.097C68.336 292.097 22.2695 221.533 22.2695 150.256C22.2695 78.9759 68.336 21.1956 132.718 21.1956C197.094 21.1956 242.51 78.9759 242.51 150.256Z" fill="#F3AA9E"/>
<path d="M221.807 149.054C221.807 131.111 231.046 116.566 242.438 116.566C253.834 116.566 263.07 131.111 263.07 149.054C263.07 166.994 253.834 181.542 242.438 181.542C231.046 181.542 221.807 166.994 221.807 149.054Z" fill="#F3AA9E"/>
<path d="M0 149.054C0 131.111 9.23665 116.566 20.6318 116.566C32.0269 116.566 41.2635 131.111 41.2635 149.054C41.2635 166.994 32.0269 181.542 20.6318 181.542C9.23665 181.542 0 166.994 0 149.054Z" fill="#F3AA9E"/>
<path d="M15.75 161.607C15.163 161.607 14.5856 161.342 14.2069 160.834C10.581 155.99 7.22653 148.035 11.8496 137.643C12.2819 136.674 13.418 136.232 14.3899 136.668C15.3618 137.1 15.8005 138.236 15.3682 139.208C12.2661 146.179 12.913 152.68 17.29 158.53C17.9274 159.379 17.7538 160.588 16.9018 161.222C16.5578 161.484 16.1508 161.607 15.75 161.607Z" fill="#E68E89"/>
<path d="M246.249 161.607C246.833 161.607 247.414 161.342 247.792 160.834C251.418 155.993 254.77 148.035 250.147 137.646C249.717 136.671 248.578 136.229 247.606 136.668C246.634 137.1 246.199 138.236 246.628 139.211C249.733 146.179 249.086 152.68 244.703 158.53C244.069 159.379 244.242 160.588 245.094 161.225C245.438 161.484 245.845 161.607 246.249 161.607Z" fill="#E68E89"/>
<path d="M97.6396 108.882C97.6396 112.846 94.4239 116.058 90.4604 116.058C86.4937 116.058 83.2812 112.846 83.2812 108.882C83.2812 104.916 86.4937 101.703 90.4604 101.703C94.4239 101.703 97.6396 104.916 97.6396 108.882Z" fill="#FDEEDC"/>
<path d="M93.5214 169.796C93.5214 173.76 90.3058 176.972 86.3422 176.972C82.3787 176.972 79.1631 173.76 79.1631 169.796C79.1631 165.833 82.3787 162.617 86.3422 162.617C90.3058 162.617 93.5214 165.833 93.5214 169.796Z" fill="#FDEEDC"/>
<path d="M66.5565 136.665C66.5565 140.628 63.3409 143.841 59.3774 143.841C55.4139 143.841 52.1982 140.628 52.1982 136.665C52.1982 132.698 55.4139 129.486 59.3774 129.486C63.3409 129.486 66.5565 132.698 66.5565 136.665Z" fill="#FDEEDC"/>
<path d="M66.5565 192.321C66.5565 196.285 63.3409 199.497 59.3774 199.497C55.4139 199.497 52.1982 196.285 52.1982 192.321C52.1982 188.358 55.4139 185.142 59.3774 185.142C63.3409 185.142 66.5565 188.358 66.5565 192.321Z" fill="#FDEEDC"/>
<path d="M140.645 137.58C140.645 141.543 137.433 144.759 133.466 144.759C129.503 144.759 126.287 141.543 126.287 137.58C126.287 133.616 129.503 130.404 133.466 130.404C137.433 130.404 140.645 133.616 140.645 137.58Z" fill="#FDEEDC"/>
<path d="M182.227 108.882C182.227 112.846 179.012 116.058 175.045 116.058C171.082 116.058 167.869 112.846 167.869 108.882C167.869 104.916 171.082 101.703 175.045 101.703C179.012 101.703 182.227 104.916 182.227 108.882Z" fill="#FDEEDC"/>
<path d="M185.559 169.796C185.559 173.76 182.344 176.972 178.38 176.972C174.414 176.972 171.201 173.76 171.201 169.796C171.201 165.833 174.414 162.617 178.38 162.617C182.344 162.617 185.559 165.833 185.559 169.796Z" fill="#FDEEDC"/>
<path d="M167.87 213.758C167.87 217.721 164.654 220.934 160.691 220.934C156.724 220.934 153.512 217.721 153.512 213.758C153.512 209.794 156.724 206.582 160.691 206.582C164.654 206.582 167.87 209.794 167.87 213.758Z" fill="#FDEEDC"/>
<path d="M140.645 228.113C140.645 232.076 137.433 235.289 133.466 235.289C129.503 235.289 126.287 232.076 126.287 228.113C126.287 224.149 129.503 220.934 133.466 220.934C137.433 220.934 140.645 224.149 140.645 228.113Z" fill="#FDEEDC"/>
<path d="M110.721 213.758C110.721 217.721 107.505 220.934 103.541 220.934C99.5748 220.934 96.3623 217.721 96.3623 213.758C96.3623 209.794 99.5748 206.582 103.541 206.582C107.505 206.582 110.721 209.794 110.721 213.758Z" fill="#FDEEDC"/>
<path d="M85.0905 242.468C85.0905 246.428 81.878 249.644 77.9145 249.644C73.9478 249.644 70.7354 246.428 70.7354 242.468C70.7354 238.501 73.9478 235.289 77.9145 235.289C81.878 235.289 85.0905 238.501 85.0905 242.468Z" fill="#FDEEDC"/>
<path d="M139.228 279.771C139.228 283.732 136.013 286.944 132.049 286.944C128.086 286.944 124.87 283.732 124.87 279.771C124.87 275.805 128.086 272.592 132.049 272.592C136.013 272.592 139.228 275.805 139.228 279.771Z" fill="#FDEEDC"/>
<path d="M194.182 243.598C194.182 247.561 190.969 250.774 187.002 250.774C183.039 250.774 179.823 247.561 179.823 243.598C179.823 239.634 183.039 236.419 187.002 236.419C190.969 236.419 194.182 239.634 194.182 243.598Z" fill="#FDEEDC"/>
<path d="M214.378 192.321C214.378 196.285 211.165 199.497 207.199 199.497C203.235 199.497 200.02 196.285 200.02 192.321C200.02 188.358 203.235 185.142 207.199 185.142C211.165 185.142 214.378 188.358 214.378 192.321Z" fill="#FDEEDC"/>
<path d="M212.32 138.814C212.32 142.777 209.105 145.993 205.141 145.993C201.178 145.993 197.962 142.777 197.962 138.814C197.962 134.85 201.178 131.638 205.141 131.638C209.105 131.638 212.32 134.85 212.32 138.814Z" fill="#FDEEDC"/>
<path d="M79.1223 241.524L132.052 277.998L185.793 241.518L203.677 193.533V139.423L174.443 110.343H91.0192L60.8384 137.318V192.059L79.1223 241.524ZM132.043 281.538L76.7019 243.408L57.9131 192.583V136.008L89.899 107.418H175.651L206.602 138.208V194.06L206.51 194.306L188.211 243.415L187.826 243.677L132.043 281.538Z" fill="#FDEEDC"/>
<path d="M60.2328 193.508L58.5225 191.135L172.83 108.851L174.541 111.227L60.2328 193.508Z" fill="#FDEEDC"/>
<path d="M206.972 193.508L92.667 111.227L94.3774 108.851L208.682 191.135L206.972 193.508Z" fill="#FDEEDC"/>
<path d="M103.967 215.61L84.711 240.893L128.12 227.772L103.967 215.61ZM76.9102 246.305L103.112 211.909L135.975 228.454L76.9102 246.305Z" fill="#FDEEDC"/>
<path d="M137.43 227.674L181.941 239.789L160.359 215.585L137.43 227.674ZM190.679 245.198L129.503 228.548L161.019 211.931L190.679 245.198Z" fill="#FDEEDC"/>
<path d="M105.386 213.022L133.434 226.475L158.859 213.07L132.052 142.919L105.386 213.022ZM133.497 229.748L101.694 214.496L132.046 134.708L162.517 214.446L133.497 229.748Z" fill="#FDEEDC"/>
<path d="M100.425 214.244L85.0477 170.522L58.2402 137.586L60.5092 135.74L87.6353 169.07L87.7205 169.31L103.183 213.272L100.425 214.244Z" fill="#FDEEDC"/>
<path d="M164.755 214.244L161.997 213.272L177.545 169.07L177.706 168.871L204.674 135.74L206.94 137.586L180.136 170.522L164.755 214.244Z" fill="#FDEEDC"/>
<path d="M179.242 90.7781C198.99 96.7991 200.732 98.2192 218.657 97.0358C218.657 97.0358 234.078 98.8945 239.822 117.671C239.822 117.671 237.657 86.5684 235.18 76.5397C233.132 68.2687 229.417 59.6947 225.167 52.3357C220.657 44.5254 214.718 37.7029 208.072 31.6377C201.316 25.4683 193.941 19.8954 186.207 15.0105C178.498 10.1444 170.274 6.19351 161.438 3.85516C151.034 1.10657 139.459 -0.234585 128.692 0.0336468C111.648 0.453351 93.8971 6.01048 79.2895 14.6854C71.5897 19.2548 64.3695 24.7015 57.8215 30.8046C51.5007 36.6899 45.8458 43.2916 41.371 50.6916C33.0053 64.5166 28.7862 80.4622 27.4577 96.4741C27.0506 101.391 26.8391 106.32 26.5078 111.243C26.369 113.297 26.5551 115.645 26.167 117.671C31.9545 98.5284 49.4369 102.52 49.4369 102.52C61.3969 104.821 70.1381 102.438 79.2264 96.1585C79.2264 96.1585 112.948 74.4033 117.271 42.7456C117.271 42.7456 138.777 78.4394 179.242 90.7781Z" fill="#353470"/>
</svg>
