<svg width="298" height="209" viewBox="0 0 298 209" fill="none" xmlns="http://www.w3.org/2000/svg">
<path d="M91.8118 118.95L108.872 148.329L84.8724 190.01L84.7539 190.2C82.4933 193.878 79.3129 196.903 75.5261 198.979C71.7393 201.055 67.4766 202.11 63.1578 202.039C59.0943 201.987 55.0963 201.009 51.4678 199.181C47.8394 197.352 44.6761 194.721 42.2186 191.487L40.2995 188.509L0 118.957L91.8118 118.95Z" fill="#2ED98A"/>
<path d="M88.9511 195.739L89.1418 195.415H89.2061L114.177 152.637L202.14 0H298.001L208.837 154.003L208.876 154.076L183.851 196.889L183.661 197.221C183.542 197.412 183.403 197.569 183.267 197.759C178.372 205.03 170.781 208.458 148.119 208.458H67.3164C66.9316 208.433 66.5516 208.358 66.1855 208.237C70.7301 208.257 75.2049 207.12 79.1879 204.933C83.1709 202.747 86.531 199.582 88.9511 195.739Z" fill="#2ED98A"/>
</svg>
