<svg width="290" height="290" viewBox="0 0 290 290" fill="none" xmlns="http://www.w3.org/2000/svg">
<path d="M65.1583 66H60.6816L113.612 13.07C130.86 -4.11252 158.773 -4.11252 176.022 13.07L228.952 66H224.475C213.942 66 204.001 70.0816 196.562 77.5866L151.795 122.156C147.911 126.04 141.722 126.04 137.838 122.156L93.0716 77.5866C85.6325 70.0816 75.6916 66 65.1583 66Z" fill="#4DB6AC"/>
<path d="M224.475 224H228.952L176.022 276.93C158.773 294.113 130.86 294.113 113.612 276.93L60.6816 224H65.1583C75.6916 224 85.6325 219.918 93.0716 212.413L137.838 167.844C141.722 163.96 147.911 163.96 151.795 167.844L196.562 212.413C204.001 219.918 213.942 224 224.475 224Z" fill="#4DB6AC"/>
<path d="M276.747 176.205L242.119 210.833H224.475C217.431 210.833 210.848 208.068 205.844 203.131L161.078 158.496C152.124 149.543 137.509 149.543 128.556 158.496L83.7894 203.131C78.786 208.068 72.2027 210.833 65.1585 210.833H47.5152L12.8869 176.205C-4.29562 158.957 -4.29562 131.043 12.8869 113.795L47.5152 79.1667H65.1585C72.2027 79.1667 78.786 81.9317 83.7894 86.8692L128.556 131.504C133.033 135.981 138.958 138.219 144.817 138.219C150.676 138.219 156.601 135.981 161.078 131.504L205.844 86.8692C210.848 81.9317 217.431 79.1667 224.475 79.1667H242.119L276.747 113.795C293.929 131.043 293.929 158.957 276.747 176.205Z" fill="#4DB6AC"/>
</svg>
